# xmcd
#
# Track frame offsets:
# 150
# 4578
# 21976
# 39311
# 55853
# 70022
# 86290
# 104805
# 120248
# 137815
# 152772
# 172829
# 190405
# 212294
# 230752
#
# Disc length: 3344 seconds
#
#
# Revision: 5
# Processed by: cddbd v1.5.2PL0 Copyright (c) Steve Scherf et al.
# Submitted via: FreeRIP 2.96 
#
DISCID=bb0d0e0f
DTITLE=Chris Brown - Chris Brown
DYEAR=2005
DGENRE=R&B
TTITLE0=Intro
TTITLE1=Run It! (With Juelz Santana)
TTITLE2=Yo (Excuse Me Miss)
TTITLE3=Young Love
TTITLE4=Gimme That
TTITLE5=Ya Man Ain't Me
TTITLE6=Winner
TTITLE7=Ain't No Way (You Won't Love Me)
TTITLE8=What's My Name (With Noah)
TTITLE9=Is This Love?
TTITLE10=Poppin'
TTITLE11=Just Fine
TTITLE12=Say Goodbye
TTITLE13=Run It! (Remix) (With Bow Wow and Jermaine Dupri)
TTITLE14=Thank You
EXTD=YEAR: 2005
EXTT0=
EXTT1=
EXTT2=
EXTT3=
EXTT4=
EXTT5=
EXTT6=
EXTT7=
EXTT8=
EXTT9=
EXTT10=
EXTT11=
EXTT12=
EXTT13=
EXTT14=
PLAYORDER=
